<svg width="20" height="20" viewBox="0 0 20 20" fill="none" xmlns="http://www.w3.org/2000/svg">
<path d="M8.09202 8.09201C7.82674 8.33919 7.61398 8.63728 7.4664 8.96847C7.31883 9.29967 7.23948 9.6572 7.23309 10.0197C7.22669 10.3823 7.29338 10.7424 7.42917 11.0786C7.56497 11.4148 7.76709 11.7202 8.02348 11.9765C8.27987 12.2329 8.58527 12.4351 8.92147 12.5709C9.25766 12.7066 9.61777 12.7733 9.9803 12.7669C10.3428 12.7605 10.7004 12.6812 11.0316 12.5336C11.3628 12.3861 11.6608 12.1733 11.908 11.908" stroke="#95999B" stroke-width="1.25" stroke-linecap="round" stroke-linejoin="round"/>
<path d="M8.85693 3.77201C9.23611 3.72477 9.61782 3.70073 9.99993 3.70001C16.2999 3.70001 18.9999 10 18.9999 10C18.5976 10.8614 18.0929 11.6713 17.4969 12.412" stroke="#95999B" stroke-width="1.25" stroke-linecap="round" stroke-linejoin="round"/>
<path d="M5.149 5.14899C3.35913 6.36815 1.92688 8.04272 1 9.99999C1 9.99999 3.7 16.3 10 16.3C11.7243 16.3046 13.4117 15.8006 14.851 14.851" stroke="#95999B" stroke-width="1.25" stroke-linecap="round" stroke-linejoin="round"/>
<path d="M1 1L19 19" stroke="#95999B" stroke-width="1.25" stroke-linecap="round" stroke-linejoin="round"/>
<path d="M1 1L19 19" stroke="#95999B" stroke-width="1.25" stroke-linecap="round" stroke-linejoin="round"/>
<path d="M1 1L19 19" stroke="#95999B" stroke-width="1.25" stroke-linecap="round" stroke-linejoin="round"/>
</svg>
